<?xml version="1.0" encoding="UTF-8" standalone="no"?>
<!-- Created with Inkscape (http://www.inkscape.org/) -->

<svg
   xmlns:dc="http://purl.org/dc/elements/1.1/"
   xmlns:cc="http://creativecommons.org/ns#"
   xmlns:rdf="http://www.w3.org/1999/02/22-rdf-syntax-ns#"
   xmlns:svg="http://www.w3.org/2000/svg"
   xmlns="http://www.w3.org/2000/svg"
   xmlns:sodipodi="http://sodipodi.sourceforge.net/DTD/sodipodi-0.dtd"
   xmlns:inkscape="http://www.inkscape.org/namespaces/inkscape"
   width="128px"
   height="64px"
   viewBox="0 0 2125.9842 1062.9921"
   id="svg2"
   version="1.1"
   inkscape:version="0.91 r13725"
   sodipodi:docname="gt86.svg">
  <defs
     id="defs4" />
  <sodipodi:namedview
     id="base"
     pagecolor="#ffffff"
     bordercolor="#666666"
     borderopacity="1.0"
     inkscape:pageopacity="0.0"
     inkscape:pageshadow="2"
     inkscape:zoom="0.35"
     inkscape:cx="1167.1644"
     inkscape:cy="707.12115"
     inkscape:document-units="px"
     inkscape:current-layer="layer1"
     showgrid="false"
     inkscape:window-width="1366"
     inkscape:window-height="705"
     inkscape:window-x="-8"
     inkscape:window-y="-8"
     inkscape:window-maximized="1" />
  <metadata
     id="metadata7">
    <rdf:RDF>
      <cc:Work
         rdf:about="">
        <dc:format>image/svg+xml</dc:format>
        <dc:type
           rdf:resource="http://purl.org/dc/dcmitype/StillImage" />
        <dc:title></dc:title>
      </cc:Work>
    </rdf:RDF>
  </metadata>
  <g
     inkscape:label="Ebene 1"
     inkscape:groupmode="layer"
     id="layer1"
     transform="translate(0,10.629918)">
    <path
       style="fill:#000000"
       d="M 1000.2308,887.78893 C 904.57812,870.41283 817.72202,819.221 759.56903,745.94612 c -22.43367,-28.26719 -50.44614,-77.52223 -60.4281,-106.25216 -9.9474,-28.63051 -35.47872,-56.88863 -56.60352,-62.64899 -8.59962,-2.34496 -54.00799,-3.79705 -119.11155,-3.80907 -111.79075,-0.0186 -124.34127,1.57351 -132.50649,16.83032 -2.32222,4.33918 -3.75409,32.94293 -3.75409,74.99487 l 0,67.98021 -114.65688,0 -114.6569,0 0,-227.57657 0,-227.57652 114.6569,0 114.65688,0 0,68.71594 c 0,77.20912 1.08518,81.23949 23.55497,87.47993 17.87069,4.96317 213.7449,4.74574 231.81716,-0.25738 19.71375,-5.45747 44.02992,-31.01456 53.28937,-56.0088 20.53965,-55.44316 46.94123,-97.35172 88.51853,-140.51015 50.38977,-52.306 110.13836,-87.96498 179.70047,-107.24826 47.01072,-13.03181 122.97782,-15.6301 170.12642,-5.81881 87.9976,18.31159 170.0697,66.31218 222.5776,130.17637 9.828,11.95363 20.7446,25.15797 24.259,29.34293 10.1597,12.09815 33.1611,55.99228 44.8203,85.53155 12.8169,32.47247 21.0831,44.29759 39.8956,57.07199 l 14.1554,9.61214 104.2336,1.09803 c 117.5033,1.23782 131.1184,0.12854 142.8887,-11.64176 8.1348,-8.1348 8.2499,-9.22144 8.2499,-77.89682 l 0,-69.64696 114.6568,0 114.6569,0 0,227.57655 0,227.57653 -114.6569,0 -114.6568,0 0,-69.64691 c 0,-68.78868 -0.1022,-69.74925 -8.298,-77.94492 -4.5639,-4.56386 -13.554,-9.27627 -19.9781,-10.47199 -6.4241,-1.19573 -60.1487,-1.69028 -119.3881,-1.0989 l -107.708,1.0752 -14.393,9.36262 c -18.7393,12.18984 -25.6916,22.39611 -40.8317,59.94288 -51.795,128.44951 -164.4798,219.81006 -300.3364,243.50147 -35.133,6.12668 -90.4479,6.13926 -124.0882,0.0279 z m 139.4765,-30.98854 c 127.8256,-27.50454 231.2242,-123.15341 267.1231,-247.10212 13.1423,-45.37696 17.6453,-95.20215 12.7134,-140.67413 -5.3287,-49.13154 -14.5816,-81.54095 -35.2259,-123.38413 -49.4164,-100.16013 -142.4451,-170.6519 -252.486,-191.31936 -42.7595,-8.03088 -123.5949,-5.41512 -162.69609,5.26473 -98.66871,26.9498 -181.91016,95.25204 -227.2148,186.43694 -27.9197,56.19414 -36.78383,102.12589 -34.2426,177.43702 1.42812,42.32435 3.39478,57.06298 11.0437,82.76449 40.91004,137.46495 153.98163,235.74241 293.68859,255.26292 30.6122,4.27723 96.9967,1.83337 127.2966,-4.68636 z M 999.06119,835.59217 C 930.49512,820.06902 873.74934,789.2972 826.43147,741.97927 784.71393,700.26175 753.60134,646.37268 738.02395,588.85157 726.79745,547.39662 725.03531,487.02405 733.81486,444.64571 761.70399,310.02667 862.08478,208.24882 996.53036,178.27388 c 37.38704,-8.33551 100.76854,-7.50474 138.94314,1.82117 117.7447,28.76456 208.5692,112.25538 246.8963,226.96047 10.6112,31.75674 11.0651,42.71876 2.3601,56.9939 -10.9181,17.90442 -25.326,22.30585 -73.0171,22.30585 -25.8535,0 -42.037,-1.34458 -42.037,-3.49255 0,-1.92091 10.9445,-22.69704 24.3212,-46.16916 40.1066,-70.37553 38.8513,-71.94409 -57.5766,-71.94409 -59.0555,0 -70.9781,0.83018 -70.9781,4.94223 0,2.71822 5.4723,6.74826 12.1606,8.95557 6.9904,2.30708 12.1605,6.3193 12.1605,9.43711 0,2.98304 -12.508,27.26102 -27.7955,53.95105 -27.9017,48.71251 -33.1552,65.3661 -23.6263,74.89501 3.0538,3.05379 31.6399,4.17449 106.8394,4.18871 56.8396,0.0124 108.1816,1.55053 115.0172,3.4495 26.5693,7.38101 34.6772,24.01006 27.8704,57.16153 -9.1846,44.73175 -38.9372,102.89171 -73.2249,143.13877 -40.128,47.10245 -107.3715,89.28268 -168.5109,105.70282 -36.3401,9.75985 -114.5597,12.42631 -147.27161,5.0204 z m 116.47641,-86.91585 c 5.0204,-5.73285 12.147,-16.67737 15.8369,-24.32115 6.7262,-13.93336 17.3467,-33.58262 35.6812,-66.01458 5.4015,-9.55475 14.4942,-25.97152 20.206,-36.48173 5.7119,-10.51021 11.7384,-20.59482 13.3924,-22.41023 4.9612,-5.44542 3.3965,-25.34637 -2.4527,-31.19559 -4.6389,-4.63891 -17.1767,-5.45986 -83.3868,-5.45986 -42.8598,0 -77.927,1.34626 -77.927,2.99165 0,1.6454 7.0358,6.7241 15.635,11.28597 8.5993,4.56194 15.6351,9.41438 15.6351,10.78325 0,1.36886 -8.5993,17.3839 -19.1095,35.58891 -10.5102,18.20504 -19.1095,34.54685 -19.1095,36.31512 0,1.76833 -1.1726,3.73625 -2.6058,4.37328 -1.4333,0.63697 -8.8599,13.27254 -16.5037,28.079 -7.6438,14.80649 -15.16269,26.92363 -16.70869,26.92701 -1.546,0.003 -1.84455,1.5696 -0.66354,3.48056 1.18104,1.91096 0.49158,3.47447 -1.53216,3.47447 -6.66778,0 -3.83248,18.49851 4.13801,26.99747 7.67438,8.18328 8.75608,8.31461 59.08218,7.17284 l 51.2647,-1.16305 9.1279,-10.42334 z M 928.32993,634.45637 c 5.6614,-6.448 27.7124,-43.26687 49.00223,-81.81965 31.05084,-56.22868 38.70874,-72.82887 38.70874,-83.9098 0,-11.63114 -1.4081,-14.34908 -8.9123,-17.20215 -4.9018,-1.86367 -42.42585,-3.38846 -83.38684,-3.38846 -62.07865,0 -74.47451,0.82259 -74.47451,4.94223 0,2.71819 5.3472,6.70694 11.88267,8.86383 22.63717,7.47095 22.63385,7.4848 -20.51677,84.45331 -22.00451,39.24997 -40.00819,74.28338 -40.00819,77.85197 0,3.56862 2.43391,9.96328 5.40865,14.21035 5.18952,7.40904 7.5688,7.72202 58.70578,7.72202 l 53.29705,0 10.29349,-11.72365 z m 111.54847,-240.5985 c 16.0143,-3.20286 23.4973,-12.65443 56.9435,-71.92403 31.9159,-56.55777 36.5055,-71.8044 23.6809,-78.6679 -8.2371,-4.40841 -142.68086,-4.9208 -142.68086,-0.54377 0,1.67913 4.63869,4.97435 10.30814,7.32272 19.39462,8.03352 19.13432,9.42428 -12.08443,64.56193 -35.76516,63.16734 -37.31165,74.9102 -10.38427,78.84747 16.99739,2.48533 62.56922,2.73315 74.21702,0.40358 z M 292.11447,539.74075 c 23.59502,-11.19658 29.96202,-44.22069 12.19312,-63.2424 -23.91174,-25.5976 -64.17004,-14.25554 -71.74027,20.21149 -3.28775,14.96895 7.32294,35.00925 22.56885,42.62541 15.09721,7.54188 21.78488,7.61526 36.9783,0.4055 z m 1581.03633,-3.11737 c 4.7348,-3.10241 10.9121,-11.15334 13.7273,-17.89097 12.9512,-30.9966 -16.3125,-63.5081 -49.6358,-55.14443 -15.3697,3.85748 -29.0266,21.36237 -29.0266,37.20508 0,36.1303 35.0014,55.44359 64.9351,35.83032 z M 26.620494,707.85152 8.4642347,682.66175 l 0,-177.19702 0,-177.19698 18.1562593,-25.18977 18.156258,-25.18977 20.055635,0 20.055636,0 0,227.57652 0,227.57657 -20.055636,0 -20.055635,0 -18.156258,-25.18978 z M 113.52708,506.38064 c 0.83873,-212.69653 1.26839,-226.73274 6.97408,-227.83127 5.74085,-1.10532 6.08028,11.54877 6.08028,226.66064 0,225.78897 -0.0626,227.83129 -6.97405,227.83129 -6.92034,0 -6.9672,-1.7469 -6.08031,-226.66066 z m 1882.30902,-0.91591 c 0,-192.20556 0.7523,-227.57652 4.8399,-227.57652 2.662,0 5.789,2.47313 6.9489,5.49584 1.16,3.02272 2.109,105.43214 2.109,227.57656 0,219.76435 -0.072,222.08069 -6.9489,222.08069 -6.8782,0 -6.9489,-2.31634 -6.9489,-227.57657 z m 41.6934,0 0,-227.57652 20.0557,0 20.0556,0 18.1563,25.18977 18.1562,25.18977 0,177.19698 0,177.19702 -18.1562,25.18977 -18.1563,25.18978 -20.0556,0 -20.0557,0 0,-227.57657 z"
       id="path3347"
       inkscape:connector-curvature="0" />
  </g>
</svg>
